<?xml version="1.0" standalone="no"?>
<!DOCTYPE svg PUBLIC "-//W3C//DTD SVG 1.1//EN" "http://www.w3.org/Graphics/SVG/1.1/DTD/svg11.dtd" >
<svg xmlns="http://www.w3.org/2000/svg" xmlns:xlink="http://www.w3.org/1999/xlink" version="1.1" viewBox="0 -200 1050 1000">
  <g transform="matrix(1 0 0 -1 0 801)">
   <path fill="currentColor"
d="M1050 415c0 -15 -19 -30 -29 -38l-275 -200l105 -323c3 -10 5 -20 5 -30c0 -13 -4 -24 -18 -24c-13 0 -28 9 -38 17l-275 199l-275 -199c-11 -8 -25 -17 -39 -17c-13 0 -18 11 -18 23c0 11 3 21 6 31l105 323l-275 200c-11 8 -29 23 -29 37c0 21 35 23 49 23l340 -1
l104 324c4 13 15 40 32 40s27 -27 31 -40l106 -324l339 1c14 0 49 -2 49 -22z" />
  </g>

</svg>
